<?xml version="1.0" encoding="UTF-8"?>
<svg width="439px" height="375px" viewBox="0 0 439 375" version="1.1" xmlns="http://www.w3.org/2000/svg" xmlns:xlink="http://www.w3.org/1999/xlink">
    <!-- Generator: Sketch 52.5 (67469) - http://www.bohemiancoding.com/sketch -->
    <title>Custom Preset 2</title>
    <desc>Created with Sketch.</desc>
    <g id="Custom-Preset-2" stroke="none" stroke-width="1" fill="none" fill-rule="evenodd">
        <g id="Dashboard" transform="translate(56.000000, 27.000000)" stroke="#FFFFFF">
            <g id="Axis" stroke-linecap="square" stroke-width="2">
                <path d="M0.5,0.0941904674 L0.5,306" id="Line-2"></path>
                <path d="M186.394533,121.105467 L186.394533,491.894533" id="Line-2" transform="translate(186.394533, 306.500000) rotate(90.000000) translate(-186.394533, -306.500000) "></path>
            </g>
            <polyline id="Path" stroke-width="3" points="1 306 84.148137 192.126296 133.454407 225.932001 230.07096 103.768939 287.262277 103.768939 334.76137 43"></polyline>
            <g id="Lupa" transform="translate(112.000000, 178.000000)" stroke-width="3">
                <circle id="Oval" cx="37.5" cy="37.5" r="37.5"></circle>
                <circle id="Oval" cx="37.5" cy="37.5" r="31.5"></circle>
                <polyline id="Path-2" points="52.8270247 72.4837031 61.9109634 78.7284306 74.8860055 65.7533885 69.6521705 56.9192901"></polyline>
                <polyline id="Path-3" points="65 75.2517762 97.3383096 107.31334 103.743191 100.908458 70.834733 68"></polyline>
            </g>
        </g>
        <g id="Group" transform="translate(5.000000, 27.000000)" fill="#FFFFFF" fill-rule="nonzero">
            <path d="M6.00000437,5.97391502 C5.99735063,8.16866094 7.20406394,10.1876509 9.14183605,11.2306122 C11.0796082,12.2735735 13.4355202,12.1720849 15.2757529,10.9663736 C15.958304,12.4575559 17.3141552,13.5344461 18.925048,13.8648408 C20.5359409,14.1952356 22.208323,13.7394372 23.4262912,12.6380523 C23.8540209,14.5019501 25.4587533,15.8650119 27.3732339,15.9905905 C29.2877144,16.1161691 31.0578808,14.9744807 31.7270721,13.1825344 C32.3962634,11.3905881 31.8057658,9.37338449 30.2747052,8.22109212 C28.7436445,7.06879975 26.6351466,7.05471088 25.0887186,8.18643963 C24.8896254,6.53770049 23.9012088,5.08730961 22.4367479,4.29496921 C20.972287,3.5026288 19.2133517,3.46657651 17.7174376,4.19823913 C16.8367398,1.3794567 14.0218614,-0.37542366 11.0930717,0.0684089991 C8.16428194,0.512241658 6.00009344,3.02165637 6.00000033,5.97391502 L6.00000437,5.97391502 Z M31.588236,11.6723441 C31.5884647,13.7157524 30.0131667,15.4163913 27.9692258,15.5793063 C25.9252849,15.7422214 24.0987687,14.3127286 23.7730795,12.2952616 C24.6480071,11.349496 25.133474,10.1100755 25.1328426,8.82372086 C25.1328426,8.77235978 25.1304531,8.72151758 25.1287296,8.67037772 C26.2984747,7.68820539 27.933929,7.47198345 29.3201896,8.11622855 C30.7064503,8.76047364 31.5914146,10.1480246 31.58824,11.6723441 L31.588236,11.6723441 Z M19.968326,4.07627014 C22.5070907,4.07251206 24.6005931,6.05779755 24.7227139,8.58489525 C24.7258662,8.66227676 24.7292162,8.74319389 24.7292162,8.82372086 C24.7299215,11.0690296 23.1506094,13.0071648 20.9453575,13.4672803 C18.7401057,13.9273958 16.5132691,12.7833957 15.6101014,10.7263816 C17.5117699,9.3070547 18.3811038,6.89449883 17.8198971,4.59380673 C18.4856108,4.25633525 19.2214378,4.07908135 19.968326,4.07627014 Z M11.9938315,0.402760335 C14.2549579,0.402680618 16.2934838,1.75999931 17.1588348,3.84179233 C18.0241859,5.92358535 17.5459432,8.31987236 15.9471137,9.91325345 C14.3482841,11.5066345 11.943735,11.9833154 9.85471895,11.1210174 C7.76570287,10.2587194 6.40362261,8.22726033 6.40362261,5.97391904 C6.40705021,2.89854596 8.90783336,0.406284939 11.9938315,0.402760335 Z" id="Shape"></path>
            <path d="M27.5066057,17.3146582 C26.8857079,17.3142864 26.2667026,17.3830339 25.6610517,17.5196279 C23.4657846,15.960815 20.7372017,15.3444883 18.0840394,15.808148 C14.4455296,13.5236317 9.85139299,13.3951124 6.09057257,15.4726349 C2.32975216,17.5501575 -0.00326020081,21.5053176 3.41960329e-06,25.7979877 C-2.77238186e-05,25.8515742 0.021270398,25.9029749 0.0592058533,25.9408663 C0.0971413085,25.9787577 0.148601765,26.0000311 0.202250591,26 L35.7977528,26 C35.8514016,26.0000311 35.9028621,25.9787577 35.9407975,25.9408663 C35.978733,25.9029749 36.0000311,25.8515742 36,25.7979877 C35.9946922,21.1148947 32.1951456,17.3198505 27.5066057,17.3146582 Z M0.406273493,25.5959755 C0.516968247,19.3833214 5.59074771,14.4048263 11.8116124,14.4048263 C18.0324771,14.4048263 23.1062566,19.3833214 23.2169513,25.5959755 L0.406273493,25.5959755 Z M23.6180883,25.5959755 C23.5527523,21.8245713 21.6846547,18.3120905 18.5925455,16.1467245 C21.0354121,15.8180054 23.5109084,16.4455992 25.5011187,17.8982028 C27.9824049,19.6897347 29.4804323,22.5386231 29.5488289,25.5959755 L23.6180883,25.5959755 Z M29.9493956,25.5959755 C29.8844895,22.5667674 28.4705206,19.7242714 26.09272,17.8429161 C28.413694,17.4316352 30.7988247,18.0519761 32.6242283,19.541675 C34.4496319,21.0313738 35.5337243,23.2422411 35.5929371,25.5959755 L29.9493956,25.5959755 Z" id="Shape"></path>
        </g>
        <text id="JAN" font-family="HelveticaNeue-UltraLight, Helvetica Neue" font-size="12" font-weight="200" letter-spacing="0.5" fill="#FFFFFF">
            <tspan x="105" y="351">JAN </tspan>
        </text>
        <text id="Q1" font-family="HelveticaNeue-Light, Helvetica Neue" font-size="12" font-weight="300" letter-spacing="0.5" fill="#FFFFFF">
            <tspan x="412" y="349">Q1</tspan>
        </text>
        <text id="FEB" font-family="HelveticaNeue-UltraLight, Helvetica Neue" font-size="12" font-weight="200" letter-spacing="0.5" fill="#FFFFFF">
            <tspan x="209" y="351">FEB</tspan>
        </text>
        <text id="MAR" font-family="HelveticaNeue-UltraLight, Helvetica Neue" font-size="12" font-weight="200" letter-spacing="0.5" fill="#FFFFFF">
            <tspan x="309" y="351">MAR</tspan>
        </text>
    </g>
</svg>