<?xml version="1.0" encoding="UTF-8"?>
<svg width="500px" height="500px" viewBox="0 0 500 500" version="1.1" xmlns="http://www.w3.org/2000/svg" xmlns:xlink="http://www.w3.org/1999/xlink">
    <!-- Generator: Sketch 52.5 (67469) - http://www.bohemiancoding.com/sketch -->
    <title>Custom Preset 2</title>
    <desc>Created with Sketch.</desc>
    <g id="Custom-Preset-2" stroke="none" stroke-width="1" fill="none" fill-rule="evenodd">
        <g id="Wireframe" opacity="0.648018973" transform="translate(78.000000, 121.000000)">
            <g id="Group">
                <rect id="Rectangle" x="18" y="95" width="33" height="5"></rect>
                <rect id="Rectangle" x="18" y="103" width="13" height="5"></rect>
                <rect id="Rectangle" x="18" y="87" width="33" height="5"></rect>
                <rect id="Rectangle" x="16" y="112" width="23" height="5"></rect>
                <rect id="Rectangle" x="34" y="151" width="90" height="5"></rect>
                <rect id="Rectangle" x="17" y="142" width="108" height="5"></rect>
                <rect id="Rectangle" x="33" y="127" width="77" height="5"></rect>
                <rect id="Rectangle" x="18" y="127" width="13" height="5"></rect>
                <rect id="Rectangle" x="18" y="119" width="13" height="5"></rect>
                <rect id="Rectangle" x="18" y="135" width="13" height="5"></rect>
                <rect id="Rectangle" x="34" y="207" width="107" height="5"></rect>
                <rect id="Rectangle" x="34" y="135" width="107" height="5"></rect>
                <path d="M317,42.6379252 L317,33.358033 C317,32.6062647 316.428195,32 315.719156,32 L55.2770321,32 C54.5718054,32 54,32.6062647 54,33.358033 L54,42.6379252 C54,43.3896935 54.5718054,44 55.2770321,44 L315.719156,44 C316.424383,44 317,43.3896935 317,42.6379252 Z" id="Path"></path>
                <polygon id="Path" points="8.43 38.628 8.426 38.632 11.574 41.372"></polygon>
                <rect id="Rectangle" x="34" y="119" width="49" height="5"></rect>
                <rect id="Rectangle" x="17" y="79" width="45" height="5"></rect>
                <rect id="Rectangle" x="18" y="63" width="13" height="5"></rect>
                <rect id="Rectangle" x="17" y="215" width="108" height="5"></rect>
                <rect id="Rectangle" x="34" y="230" width="49" height="5"></rect>
                <rect id="Rectangle" x="18" y="151" width="13" height="5"></rect>
                <rect id="Rectangle" x="33" y="198" width="77" height="5"></rect>
                <polygon id="Path" points="17.996494 40.7844551 18 40.7844551 18 35.2315705 14.0101286 35.2315705 14.0101286 33.0080128 14.0101286 33 9 38.0080128 14.0136346 43 14.0136346 40.7884615 14.0136346 40.7844551"></polygon>
                <polygon id="Path" points="37.9299868 37.5019706 37.9299868 43 40.9379128 43 40.9379128 39.8745969 42.98679 39.8745969 42.98679 43 42.990753 43 46.0660502 43 46.0660502 37.5019706 46.0700132 37.5019706 48 37.5019706 42 32 36 37.5019706"></polygon>
                <rect id="Rectangle" x="87" y="230" width="13" height="5"></rect>
                <path d="M340,5.63357532 C340,4.18529946 338.817437,3 337.375473,3 L5.63597157,3 C4.18256322,3 3,4.18529946 3,5.63357532 L3,24 L340,24 L340,5.63357532 Z M310.229925,16.7281307 C308.44845,16.7281307 307.002671,15.2874773 307.002671,13.5038113 C307.002671,11.7201452 308.44845,10.2794918 310.229925,10.2794918 C312.011399,10.2794918 313.457178,11.7239564 313.457178,13.5038113 C313.457178,15.2836661 312.011399,16.7281307 310.229925,16.7281307 Z M319.915499,16.7281307 C318.134025,16.7281307 316.688246,15.2874773 316.688246,13.5038113 C316.688246,11.7201452 318.134025,10.2794918 319.915499,10.2794918 C321.696973,10.2794918 323.142752,11.7239564 323.142752,13.5038113 C323.142752,15.2836661 321.696973,16.7281307 319.915499,16.7281307 Z M329.601073,16.7281307 C327.815784,16.7281307 326.37382,15.2874773 326.37382,13.5038113 C326.37382,11.7201452 327.815784,10.2794918 329.601073,10.2794918 C331.382547,10.2794918 332.828326,11.7239564 332.828326,13.5038113 C332.828326,15.2836661 331.382547,16.7281307 329.601073,16.7281307 Z" id="Shape"></path>
                <rect id="Rectangle" x="18" y="71" width="33" height="5"></rect>
                <path d="M328.559633,35.7179211 C328.486972,35.7731183 328.450642,35.8480287 328.474862,35.9426523 C328.491009,36.037276 328.55156,36.0964158 328.640367,36.127957 L332.677064,37.4802867 C332.761835,37.5039427 332.834495,37.4921147 332.907156,37.4408602 C332.971743,37.3935484 333,37.3344086 333,37.2555556 L332.991927,33.088172 C332.991927,33.0014337 332.93945,32.9344086 332.858716,32.8792115 C332.765872,32.8397849 332.685138,32.8476703 332.604404,32.9028674 L331.663853,33.5573477 L331.583119,33.6204301 C331.070459,33.1197133 330.481101,32.7215054 329.811009,32.4336918 C329.124771,32.1458781 328.394128,32 327.627156,32 C326.856147,32 326.121468,32.1458781 325.435229,32.4336918 C324.748991,32.7215054 324.159633,33.1157706 323.655046,33.6125448 C323.146422,34.109319 322.738716,34.6888889 322.44,35.3591398 C322.145321,36.0293907 322,36.7430108 322,37.5 C322,38.2569892 322.145321,38.9706093 322.44,39.6408602 C322.738716,40.3071685 323.146422,40.890681 323.655046,41.3874552 C324.159633,41.8842294 324.748991,42.2784946 325.435229,42.5663082 C326.121468,42.8501792 326.856147,43 327.627156,43 C328.091376,43 328.55156,42.9408602 328.999633,42.8304659 C329.447706,42.7240143 329.863486,42.5663082 330.263119,42.3573477 C330.654679,42.1523297 331.034128,41.8960573 331.381284,41.5964158 C331.724404,41.2967742 332.031193,40.9537634 332.293578,40.5713262 C332.342018,40.4964158 332.358165,40.4333333 332.342018,40.3702509 C332.317798,40.2835125 332.285505,40.2243728 332.228991,40.1928315 L330.81211,39.2308244 C330.743486,39.1835125 330.670826,39.1716846 330.582018,39.1835125 C330.489174,39.1992832 330.428624,39.2426523 330.380183,39.3136201 C330.081468,39.7670251 329.673761,40.1218638 329.193394,40.3702509 C328.708991,40.6225806 328.180183,40.7448029 327.615046,40.7448029 C327.166972,40.7448029 326.731009,40.6620072 326.331376,40.4885305 C325.919633,40.3189964 325.56844,40.0863799 325.265688,39.790681 C324.966972,39.4989247 324.728807,39.155914 324.547156,38.7577061 C324.373578,38.3634409 324.288807,37.9415771 324.288807,37.5 C324.288807,37.0544803 324.373578,36.6365591 324.547156,36.2383513 C324.728807,35.844086 324.966972,35.4971326 325.265688,35.2053763 C325.572477,34.9136201 325.919633,34.6810036 326.331376,34.5075269 C326.726972,34.3379928 327.166972,34.2512545 327.615046,34.2512545 C328.002569,34.2512545 328.373945,34.3103943 328.721101,34.4326165 C329.068257,34.5508961 329.383119,34.7243728 329.661651,34.9451613 L329.512294,35.0594982 L328.559633,35.7179211 Z" id="Path"></path>
                <rect id="Rectangle" x="34" y="222" width="90" height="5"></rect>
                <polygon id="Path" points="24 40.768 24 40.772 27.9848131 40.772 27.9848131 42.992 27.9848131 43 33 38 27.9848131 33 27.9848131 33.004 27.9848131 35.228 27.9848131 35.232 24 35.232 24 40.764"></polygon>
                <rect id="Rectangle" x="34" y="191" width="49" height="5"></rect>
                <rect id="Rectangle" x="18" y="166" width="55" height="5"></rect>
                <rect id="Rectangle" x="18" y="198" width="13" height="5"></rect>
                <rect id="Rectangle" x="10" y="239" width="4" height="5"></rect>
                <rect id="Rectangle" x="18" y="175" width="27" height="5"></rect>
                <rect id="Rectangle" x="18" y="207" width="13" height="5"></rect>
                <rect id="Rectangle" x="18" y="191" width="13" height="5"></rect>
                <rect id="Rectangle" x="16" y="183" width="23" height="5"></rect>
                <rect id="Rectangle" x="18" y="159" width="65" height="5"></rect>
                <rect id="Rectangle" x="10" y="222" width="4" height="5"></rect>
                <rect id="Rectangle" x="18" y="222" width="13" height="5"></rect>
                <rect id="Rectangle" x="18" y="239" width="13" height="5"></rect>
                <rect id="Rectangle" x="10" y="71" width="4" height="5"></rect>
                <rect id="Rectangle" x="18" y="230" width="13" height="5"></rect>
                <polygon id="Path" points="13.998 43 14.002 43.004 14.002 42.996"></polygon>
                <rect id="Rectangle" x="10" y="95" width="4" height="5"></rect>
                <rect id="Rectangle" x="10" y="87" width="4" height="5"></rect>
                <rect id="Rectangle" x="10" y="79" width="4" height="5"></rect>
                <rect id="Rectangle" x="10" y="103" width="4" height="5"></rect>
                <rect id="Rectangle" x="10" y="230" width="4" height="5"></rect>
                <path d="M340,52 L213,52 L213.053501,255 L337.35552,255 C338.811513,255 339.996178,253.813089 340,252.358167 L339.996178,252.358167 L339.996178,52 L340,52 Z M272.325008,243.218955 L224.044143,243.218955 L224.044143,173.030422 L272.325008,173.030422 L272.325008,243.218955 Z M272.325008,163.447077 L224.044143,163.447077 L224.044143,93.2623727 L272.325008,93.2623727 L272.325008,163.447077 Z M328.986429,243.218955 L280.705564,243.218955 L280.705564,173.030422 L328.986429,173.030422 L328.986429,243.218955 Z M328.986429,163.447077 L280.705564,163.447077 L280.705564,93.2623727 L328.986429,93.2623727 L328.986429,163.447077 Z M328.986429,83.6483968 L224.044143,83.6483968 L224.044143,60.0595058 L328.986429,60.0595058 L328.986429,83.6483968 Z" id="Shape"></path>
                <rect id="Rectangle" x="145" y="135" width="13" height="5"></rect>
                <rect id="Rectangle" x="145" y="207" width="13" height="5"></rect>
                <rect id="Rectangle" x="114" y="239" width="13" height="5"></rect>
                <rect id="Rectangle" x="128" y="222" width="13" height="5"></rect>
                <rect id="Rectangle" x="33" y="239" width="77" height="5"></rect>
                <rect id="Rectangle" x="10" y="63" width="4" height="5"></rect>
                <rect id="Rectangle" x="10" y="191" width="4" height="5"></rect>
                <rect id="Rectangle" x="10" y="183" width="4" height="5"></rect>
                <rect id="Rectangle" x="10" y="175" width="4" height="5"></rect>
                <rect id="Rectangle" x="10" y="198" width="4" height="5"></rect>
                <rect id="Rectangle" x="10" y="215" width="4" height="5"></rect>
                <rect id="Rectangle" x="10" y="207" width="4" height="5"></rect>
                <rect id="Rectangle" x="10" y="166" width="4" height="5"></rect>
                <rect id="Rectangle" x="10" y="151" width="4" height="5"></rect>
                <rect id="Rectangle" x="10" y="135" width="4" height="5"></rect>
                <rect id="Rectangle" x="10" y="127" width="4" height="5"></rect>
                <rect id="Rectangle" x="10" y="119" width="4" height="5"></rect>
                <rect id="Rectangle" x="10" y="112" width="4" height="5"></rect>
                <rect id="Rectangle" x="10" y="159" width="4" height="5"></rect>
                <rect id="Rectangle" x="10" y="142" width="4" height="5"></rect>
                <circle id="Oval" fill="#FFFFFF" cx="310" cy="14" r="3"></circle>
                <circle id="Oval" fill="#FFFFFF" cx="321" cy="14" r="3"></circle>
                <circle id="Oval" fill="#FFFFFF" cx="330" cy="14" r="3"></circle>
                <path d="M338.186465,0 L5.80971323,0 C2.60672659,0 0,2.61016949 0,5.81738655 L0,253.186441 C0,256.393658 2.60672659,259 5.80971323,259 L338.194109,259 C341.397096,259 344,256.393658 344,253.186441 L344,5.81738655 C343.996178,2.61016949 341.389451,0 338.186465,0 Z M3.16858702,24.256971 L3.16858702,5.81355932 C3.16858702,4.35921268 4.35346274,3.16894478 5.80971323,3.16894478 L338.194109,3.16894478 C339.642715,3.16894478 340.823769,4.35921268 340.823769,5.81355932 L340.823769,24.256971 L3.16858702,24.256971 Z M329.67447,35.3750683 C329.341941,35.2564243 328.9903,35.1990159 328.627193,35.1990159 C328.202931,35.1990159 327.782491,35.2832149 327.41174,35.4477857 C327.021878,35.6161837 326.69317,35.8419902 326.402684,36.125205 C326.123665,36.4122471 325.894335,36.745216 325.722336,37.1279388 C325.557983,37.5144888 325.477717,37.920175 325.477717,38.3526517 C325.477717,38.7813013 325.557983,39.1908147 325.722336,39.5735375 C325.894335,39.9600875 326.119843,40.2930563 326.402684,40.5762712 C326.685526,40.8633133 327.021878,41.0891197 327.41174,41.2536905 C327.793958,41.4220886 328.202931,41.5024604 328.627193,41.5024604 C329.162298,41.5024604 329.663004,41.3838163 330.121665,41.1388737 C330.576505,40.8977583 330.962545,40.5533078 331.245386,40.1131766 C331.291252,40.0442865 331.344763,40.002187 331.436495,39.9868781 C331.516761,39.9753964 331.589382,39.9868781 331.654359,40.0328048 L332.995944,40.9666484 C333.053277,40.9972663 333.080032,41.0546747 333.102966,41.1388737 C333.118254,41.2001093 333.102966,41.261345 333.057099,41.3340623 C332.81248,41.7053034 332.518172,42.0382723 332.193287,42.3291416 C331.864579,42.6200109 331.501472,42.8687808 331.134543,43.0677966 C330.752325,43.2706397 330.362463,43.4237288 329.938201,43.527064 C329.513939,43.6342264 329.07821,43.6916348 328.63866,43.6916348 C327.908623,43.6916348 327.212987,43.5462001 326.563216,43.2706397 C325.913445,42.9912521 325.355407,42.6085293 324.877635,42.1262985 C324.39604,41.6440678 324.01,41.0776381 323.727159,40.4308365 C323.448139,39.7802078 323.310541,39.0874795 323.310541,38.3526517 C323.310541,37.6178239 323.448139,36.9250957 323.727159,36.2744669 C324.01,35.6238382 324.39604,35.0612356 324.877635,34.5790049 C325.355407,34.0967742 325.913445,33.7140514 326.563216,33.4346638 C327.212987,33.1552761 327.908623,33.0136687 328.63866,33.0136687 C329.364874,33.0136687 330.056688,33.1552761 330.706459,33.4346638 C331.340941,33.7140514 331.902801,34.1006014 332.384396,34.5866594 L332.460839,34.5254237 L333.351407,33.8901039 C333.431673,33.8365227 333.504294,33.8288682 333.592205,33.8671405 C333.67247,33.9207217 333.718336,33.9857846 333.718336,34.0699836 L333.725981,38.1153636 C333.725981,38.1919081 333.695403,38.2493166 333.638071,38.2952433 C333.569271,38.3449973 333.500472,38.356479 333.420206,38.3335156 L329.598027,37.0207764 C329.513939,36.9901586 329.456606,36.9327501 329.441317,36.8408967 C329.418384,36.7490432 329.456606,36.6763259 329.521583,36.6227447 L330.423618,35.9835976 L330.565038,35.872608 C330.301308,35.6582832 330.003178,35.4898852 329.67447,35.3750683 Z M33.979178,228.091307 L33.979178,223.357026 L124.614527,223.357026 L124.614527,228.091307 L33.979178,228.091307 Z M99.6595149,231.501367 L99.6595149,236.231821 L86.1748647,236.231821 L86.1748647,231.501367 L99.6595149,231.501367 Z M14.1153098,43.3854565 L8.64959278,38.6129032 L14.1114877,33.8288682 L14.1114877,33.8365227 L14.1114877,35.9606342 L18.4611282,35.9606342 L18.4611282,41.2651722 L18.457306,41.2651722 L14.1153098,41.2651722 L14.1153098,41.2689995 L14.1153098,43.3854565 Z M27.5311608,35.9682887 L27.5311608,33.8365227 L27.5311608,33.8326955 L33.0007,38.6167305 L27.5311608,43.4007654 L27.5311608,43.393111 L27.5311608,41.2689995 L23.1853424,41.2689995 L23.1853424,41.2651722 L23.1853424,41.261345 L23.1853424,35.9682887 L27.5311608,35.9682887 Z M47.5249831,38.356479 L45.6635815,38.356479 L45.6597593,38.356479 L45.6597593,43.695462 L42.6937478,43.695462 L42.6899257,43.695462 L42.6899257,40.6604702 L40.7138587,40.6604702 L40.7138587,43.695462 L37.8128243,43.695462 L37.8128243,38.356479 L35.9514228,38.356479 L41.7382029,33.0136687 L47.5249831,38.356479 Z M50.7853024,71.8141061 L50.7853024,76.5522143 L17.1730536,76.5522143 L17.1730536,71.8141061 L50.7853024,71.8141061 Z M17.1730536,204.155823 L17.1730536,199.429196 L30.6577038,199.429196 L30.6577038,204.155823 L17.1730536,204.155823 Z M30.6577038,207.401312 L30.6577038,212.127939 L17.1730536,212.127939 L17.1730536,207.401312 L30.6577038,207.401312 Z M17.1730536,196.355932 L17.1730536,191.625478 L30.6577038,191.625478 L30.6577038,196.355932 L17.1730536,196.355932 Z M17.1730536,188.211591 L17.1730536,183.47731 L39.7162698,183.47731 L39.7162698,188.211591 L17.1730536,188.211591 Z M82.9374785,159.549481 L82.9374785,164.287589 L17.1730536,164.287589 L17.1730536,159.549481 L82.9374785,159.549481 Z M17.1730536,156.307818 L17.1730536,151.573537 L30.6577038,151.573537 L30.6577038,156.307818 L17.1730536,156.307818 Z M82.9413007,191.621651 L82.9413007,196.355932 L33.979178,196.355932 L33.979178,191.621651 L82.9413007,191.621651 Z M72.3309297,167.525424 L72.3309297,172.259705 L17.1730536,172.259705 L17.1730536,167.525424 L72.3309297,167.525424 Z M44.7500806,175.501367 L44.7500806,180.235648 L17.1730536,180.235648 L17.1730536,175.501367 L44.7500806,175.501367 Z M33.979178,199.425369 L110.675037,199.425369 L110.675037,204.151996 L33.979178,204.151996 L33.979178,199.425369 Z M33.979178,156.307818 L33.979178,151.573537 L124.614527,151.573537 L124.614527,156.307818 L33.979178,156.307818 Z M124.610704,148.331875 L17.1730536,148.331875 L17.1730536,143.597594 L124.610704,143.597594 L124.610704,148.331875 Z M30.6577038,135.621651 L30.6577038,140.355932 L17.1730536,140.355932 L17.1730536,135.621651 L30.6577038,135.621651 Z M17.1730536,132.383816 L17.1730536,127.645708 L30.6577038,127.645708 L30.6577038,132.383816 L17.1730536,132.383816 Z M30.6577038,124.576271 L17.1730536,124.576271 L17.1730536,119.84199 L30.6577038,119.84199 L30.6577038,124.576271 Z M17.1730536,116.43193 L17.1730536,111.693822 L39.7162698,111.693822 L39.7162698,116.43193 L17.1730536,116.43193 Z M50.7853024,95.7419355 L50.7853024,100.480044 L17.1730536,100.480044 L17.1730536,95.7419355 L50.7853024,95.7419355 Z M17.1730536,92.5041006 L17.1730536,87.7659923 L50.7853024,87.7659923 L50.7853024,92.5041006 L17.1730536,92.5041006 Z M30.6577038,103.717879 L30.6577038,108.455987 L17.1730536,108.455987 L17.1730536,103.717879 L30.6577038,103.717879 Z M33.979178,127.645708 L110.675037,127.645708 L110.675037,132.383816 L33.979178,132.383816 L33.979178,127.645708 Z M82.9413007,124.576271 L33.979178,124.576271 L33.979178,119.84199 L82.9413007,119.84199 L82.9413007,124.576271 Z M61.9919334,84.5281575 L17.1730536,84.5281575 L17.1730536,79.7900492 L61.9919334,79.7900492 L61.9919334,84.5281575 Z M30.6577038,63.8381629 L30.6577038,68.5762712 L17.1730536,68.5762712 L17.1730536,63.8381629 L30.6577038,63.8381629 Z M17.1730536,215.377255 L124.610704,215.377255 L124.610704,220.103882 L17.1730536,220.103882 L17.1730536,215.377255 Z M33.979178,231.501367 L82.9413007,231.501367 L82.9413007,236.231821 L33.979178,236.231821 L33.979178,231.501367 Z M33.979178,212.135593 L33.979178,207.405139 L141.302163,207.405139 L141.302163,212.135593 L33.979178,212.135593 Z M33.979178,140.355932 L33.979178,135.621651 L141.302163,135.621651 L141.302163,140.355932 L33.979178,140.355932 Z M54.3972623,44.3767086 C53.690159,44.3767086 53.116832,43.7987972 53.116832,43.0869328 L53.116832,34.2996173 C53.116832,33.5877529 53.690159,33.0136687 54.3972623,33.0136687 L315.532405,33.0136687 C316.243331,33.0136687 316.816658,33.5877529 316.816658,34.2996173 L316.816658,43.0869328 C316.816658,43.7987972 316.243331,44.3767086 315.532405,44.3767086 L54.3972623,44.3767086 Z M8.6457706,38.6205577 L11.6500039,41.2460361 L8.6457706,38.6205577 Z M13.9356674,244.039366 L9.84975722,244.039366 L9.84975722,239.308912 L13.9356674,239.308912 L13.9356674,244.039366 Z M13.9356674,236.063423 L9.84975722,236.063423 L9.84975722,231.332969 L13.9356674,231.332969 L13.9356674,236.063423 Z M13.9356674,228.091307 L9.84975722,228.091307 L9.84975722,223.357026 L13.9356674,223.357026 L13.9356674,228.091307 Z M13.9356674,220.111536 L9.84975722,220.111536 L9.84975722,215.381083 L13.9356674,215.381083 L13.9356674,220.111536 Z M13.9356674,212.135593 L9.84975722,212.135593 L9.84975722,207.405139 L13.9356674,207.405139 L13.9356674,212.135593 Z M13.9356674,204.15965 L9.84975722,204.15965 L9.84975722,199.429196 L13.9356674,199.429196 L13.9356674,204.15965 Z M13.9356674,196.191361 L9.84975722,196.191361 L9.84975722,191.453253 L13.9356674,191.453253 L13.9356674,196.191361 Z M13.9356674,188.211591 L9.84975722,188.211591 L9.84975722,183.47731 L13.9356674,183.47731 L13.9356674,188.211591 Z M13.9356674,180.235648 L9.84975722,180.235648 L9.84975722,175.501367 L13.9356674,175.501367 L13.9356674,180.235648 Z M13.9356674,172.259705 L9.84975722,172.259705 L9.84975722,167.525424 L13.9356674,167.525424 L13.9356674,172.259705 Z M13.9356674,164.287589 L9.84975722,164.287589 L9.84975722,159.549481 L13.9356674,159.549481 L13.9356674,164.287589 Z M13.9356674,156.307818 L9.84975722,156.307818 L9.84975722,151.573537 L13.9356674,151.573537 L13.9356674,156.307818 Z M13.9356674,148.331875 L9.84975722,148.331875 L9.84975722,143.597594 L13.9356674,143.597594 L13.9356674,148.331875 Z M13.9356674,140.355932 L9.84975722,140.355932 L9.84975722,135.621651 L13.9356674,135.621651 L13.9356674,140.355932 Z M13.9356674,132.383816 L9.84975722,132.383816 L9.84975722,127.645708 L13.9356674,127.645708 L13.9356674,132.383816 Z M13.9356674,124.407873 L9.84975722,124.407873 L9.84975722,119.669765 L13.9356674,119.669765 L13.9356674,124.407873 Z M13.9356674,116.43193 L9.84975722,116.43193 L9.84975722,111.693822 L13.9356674,111.693822 L13.9356674,116.43193 Z M13.9356674,108.455987 L9.84975722,108.455987 L9.84975722,103.717879 L13.9356674,103.717879 L13.9356674,108.455987 Z M13.9356674,100.480044 L9.84975722,100.480044 L9.84975722,95.7419355 L13.9356674,95.7419355 L13.9356674,100.480044 Z M13.9356674,92.5041006 L9.84975722,92.5041006 L9.84975722,87.7659923 L13.9356674,87.7659923 L13.9356674,92.5041006 Z M13.9356674,84.5281575 L9.84975722,84.5281575 L9.84975722,79.7900492 L13.9356674,79.7900492 L13.9356674,84.5281575 Z M13.9356674,76.5522143 L9.84975722,76.5522143 L9.84975722,71.8141061 L13.9356674,71.8141061 L13.9356674,76.5522143 Z M13.9356674,68.5762712 L9.84975722,68.5762712 L9.84975722,63.8381629 L13.9356674,63.8381629 L13.9356674,68.5762712 Z M30.6577038,244.039366 L17.1730536,244.039366 L17.1730536,239.308912 L30.6577038,239.308912 L30.6577038,244.039366 Z M30.6577038,236.235648 L17.1730536,236.235648 L17.1730536,231.505194 L30.6577038,231.505194 L30.6577038,236.235648 Z M30.6577038,228.091307 L17.1730536,228.091307 L17.1730536,223.357026 L30.6577038,223.357026 L30.6577038,228.091307 Z M110.675037,244.039366 L33.979178,244.039366 L33.979178,239.308912 L110.675037,239.308912 L110.675037,244.039366 Z M127.397073,244.039366 L113.912423,244.039366 L113.912423,239.308912 L127.397073,239.308912 L127.397073,244.039366 Z M141.332741,228.091307 L127.848091,228.091307 L127.848091,223.357026 L141.332741,223.357026 L141.332741,228.091307 Z M158.020378,212.135593 L144.531905,212.135593 L144.531905,207.405139 L158.020378,207.405139 L158.020378,212.135593 Z M158.020378,140.355932 L144.531905,140.355932 L144.531905,135.621651 L158.020378,135.621651 L158.020378,140.355932 Z M338.186465,255.823401 L213.862424,255.823401 L213.808913,52.9037726 L340.827591,52.9037726 L340.827591,253.182613 L340.831413,253.182613 C340.831413,254.63696 339.642715,255.823401 338.186465,255.823401 Z" id="Shape" fill="#FFFFFF" fill-rule="nonzero" opacity="0.505766369"></path>
            </g>
        </g>
        <g id="Group" opacity="0.747860863" transform="translate(307.000000, 204.000000)" fill="#FFFFFF">
            <path d="M91.4623838,0 L8.45308538,0 C3.80388842,0 0,3.81449631 0,8.47665848 L0,129.523342 C0,134.185504 3.80388842,138 8.45308538,138 L91.5469146,138 C96.1961116,138 100,134.185504 100,129.523342 L100,8.39189189 C99.9154691,3.72972973 96.1115807,0 91.4623838,0 Z M98.1403212,129.438575 C98.1403212,133.168305 95.1817413,136.135135 91.4623838,136.135135 L8.45308538,136.135135 C4.73372781,136.135135 1.77514793,133.168305 1.77514793,129.438575 L1.77514793,8.30712531 C1.77514793,4.57739558 4.73372781,1.52579853 8.45308538,1.52579853 L91.4623838,1.52579853 C95.1817413,1.52579853 98.1403212,4.57739558 98.1403212,8.30712531 L98.1403212,129.438575 Z" id="Shape" fill-rule="nonzero"></path>
            <path d="M49,125 C46.2413793,125 44,127.241379 44,130 C44,132.758621 46.2413793,135 49,135 C51.7586207,135 54,132.758621 54,130 C54,127.241379 51.7586207,125 49,125 Z M49,133.275862 C47.1896552,133.275862 45.7241379,131.810345 45.7241379,130 C45.7241379,128.189655 47.1896552,126.724138 49,126.724138 C50.8103448,126.724138 52.2758621,128.189655 52.2758621,130 C52.2758621,131.810345 50.8103448,133.275862 49,133.275862 Z" id="Shape" fill-rule="nonzero"></path>
            <path d="M49.3584906,9 L49.6415094,9 C50.9622642,9 52,7.8 52,6.5 C52,5.2 50.9622642,4 49.6415094,4 L49.3584906,4 C48.0377358,4 47,5.2 47,6.5 C47,7.8 48.1320755,9 49.3584906,9 Z M49.3584906,6 L49.6415094,6 C49.9245283,6 50.1132075,6.2 50.1132075,6.4 C50.1132075,6.6 49.9245283,6.8 49.6415094,6.8 L49.3584906,6.8 C49.0754717,6.8 48.8867925,6.6 48.8867925,6.4 C48.8867925,6.2 49.1698113,6 49.3584906,6 Z" id="Shape" fill-rule="nonzero"></path>
            <path d="M6,122 L94,122 L94,9 L6,9 L6,122 Z M27.2210526,120.21713 L13.7473684,120.21713 L13.7473684,110.1142 L27.2210526,110.1142 L27.2210526,120.21713 Z M68.4842105,120.21713 L55.0105263,120.21713 L55.0105263,110.1142 L68.4842105,110.1142 L68.4842105,120.21713 Z M70.1684211,120.21713 L70.1684211,108.416228 L53.3263158,108.416228 L53.3263158,120.21713 L28.9052632,120.21713 L28.9052632,108.416228 L12.0631579,108.416228 L12.0631579,120.21713 L7.76842105,120.21713 L7.76842105,44.0631104 L37.9157895,44.0631104 C38.5894737,50.2607062 43.8947368,55.0150263 50.1263158,55.0150263 C56.3578947,55.0150263 61.5789474,50.2607062 62.3368421,44.0631104 L92.3157895,44.0631104 L92.3157895,120.302029 L70.1684211,120.302029 L70.1684211,120.21713 Z M50.0421053,37.6108189 C51.3894737,37.6108189 52.4842105,38.7145004 52.4842105,40.0728775 C52.4842105,41.4312547 51.3894737,42.5349361 50.0421053,42.5349361 C48.6947368,42.5349361 47.6,41.4312547 47.6,40.0728775 C47.6,38.7145004 48.6947368,37.6108189 50.0421053,37.6108189 Z M50.0421053,44.9120962 C53.3263158,44.9120962 56.1052632,47.2043576 56.8631579,50.3456048 C55.0105263,52.0435763 52.5684211,52.9774606 50.0421053,52.9774606 C47.5157895,52.9774606 45.1578947,52.0435763 43.2210526,50.3456048 C43.9789474,47.1194591 46.7578947,44.9120962 50.0421053,44.9120962 Z M54.5052632,40.0728775 C54.5052632,37.6108189 52.4842105,35.5732532 50.0421053,35.5732532 C47.6,35.5732532 45.5789474,37.6108189 45.5789474,40.0728775 C45.5789474,41.3463561 46.0842105,42.5349361 47.0105263,43.3839219 C44.5684211,44.2329076 42.6315789,46.1855748 41.7052632,48.5627348 C40.5263158,46.8647633 39.8526316,44.742299 39.8526316,42.6198347 C39.8526316,36.9316304 44.4842105,32.2622089 50.1263158,32.2622089 C55.7684211,32.2622089 60.4,36.9316304 60.4,42.6198347 C60.4,44.742299 59.7263158,46.8647633 58.5473684,48.5627348 C57.6210526,46.1855748 55.6,44.2329076 53.2421053,43.3839219 C54,42.5349361 54.5052632,41.3463561 54.5052632,40.0728775 Z M92.1473684,10.78287 L92.1473684,42.0255447 L62.2526316,42.0255447 C61.9157895,35.4883546 56.5263158,30.3095417 50.0421053,30.3095417 C43.5578947,30.3095417 38.1684211,35.5732532 37.8315789,42.0255447 L7.76842105,42.0255447 L7.76842105,10.78287 L92.1473684,10.78287 Z" id="Shape" fill-rule="nonzero"></path>
            <path d="M45.5857988,68 L32.4142012,68 C32.1656805,68 32,68.2 32,68.5 C32,68.8 32.1656805,69 32.4142012,69 L45.5857988,69 C45.8343195,69 46,68.8 46,68.5 C46,68.2 45.8343195,68 45.5857988,68 Z" id="Path"></path>
            <path d="M45.5857988,74 L32.4142012,74 C32.1656805,74 32,74.2 32,74.5 C32,74.8 32.1656805,75 32.4142012,75 L45.5857988,75 C45.8343195,75 46,74.8 46,74.5 C46,74.2 45.8343195,74 45.5857988,74 Z" id="Path"></path>
            <path d="M45.5857988,79 L32.4142012,79 C32.1656805,79 32,79.2 32,79.5 C32,79.8 32.1656805,80 32.4142012,80 L45.5857988,80 C45.8343195,80 46,79.8 46,79.5 C46,79.2 45.8343195,79 45.5857988,79 Z" id="Path"></path>
            <path d="M12,82 L29,82 L29,65 L12,65 L12,82 Z M13.7,66.7 L27.3,66.7 L27.3,80.3 L13.7,80.3 L13.7,66.7 Z" id="Shape" fill-rule="nonzero"></path>
            <path d="M86.5857988,68 L73.4142012,68 C73.1656805,68 73,68.2 73,68.5 C73,68.8 73.1656805,69 73.4142012,69 L86.5857988,69 C86.8343195,69 87,68.8 87,68.5 C87,68.2 86.8343195,68 86.5857988,68 Z" id="Path"></path>
            <path d="M86.5857988,74 L73.4142012,74 C73.1656805,74 73,74.2 73,74.5 C73,74.8 73.1656805,75 73.4142012,75 L86.5857988,75 C86.8343195,75 87,74.8 87,74.5 C87,74.2 86.8343195,74 86.5857988,74 Z" id="Path"></path>
            <path d="M86.5857988,79 L73.4142012,79 C73.1656805,79 73,79.2 73,79.5 C73,79.8 73.1656805,80 73.4142012,80 L86.5857988,80 C86.8343195,80 87,79.8 87,79.5 C87,79.2 86.8343195,79 86.5857988,79 Z" id="Path"></path>
            <path d="M53,82 L70,82 L70,65 L53,65 L53,82 Z M54.7,66.7 L68.3,66.7 L68.3,80.3 L54.7,80.3 L54.7,66.7 Z" id="Shape" fill-rule="nonzero"></path>
            <path d="M45.5857988,90 L32.4142012,90 C32.1656805,90 32,90.2 32,90.5 C32,90.8 32.1656805,91 32.4142012,91 L45.5857988,91 C45.8343195,91 46,90.8 46,90.5 C46,90.2 45.8343195,90 45.5857988,90 Z" id="Path"></path>
            <path d="M45.5857988,96 L32.4142012,96 C32.1656805,96 32,96.2 32,96.5 C32,96.8 32.1656805,97 32.4142012,97 L45.5857988,97 C45.8343195,97 46,96.8 46,96.5 C46,96.2 45.8343195,96 45.5857988,96 Z" id="Path"></path>
            <path d="M45.5857988,101 L32.4142012,101 C32.1656805,101 32,101.2 32,101.5 C32,101.8 32.1656805,102 32.4142012,102 L45.5857988,102 C45.8343195,102 46,101.8 46,101.5 C46,101.2 45.8343195,101 45.5857988,101 Z" id="Path"></path>
            <path d="M12,105 L29,105 L29,88 L12,88 L12,105 Z M13.7,89.7 L27.3,89.7 L27.3,103.3 L13.7,103.3 L13.7,89.7 Z" id="Shape" fill-rule="nonzero"></path>
            <path d="M86.5857988,90 L73.4142012,90 C73.1656805,90 73,90.2 73,90.5 C73,90.8 73.1656805,91 73.4142012,91 L86.5857988,91 C86.8343195,91 87,90.8 87,90.5 C87,90.2 86.8343195,90 86.5857988,90 Z" id="Path"></path>
            <path d="M86.5857988,96 L73.4142012,96 C73.1656805,96 73,96.2 73,96.5 C73,96.8 73.1656805,97 73.4142012,97 L86.5857988,97 C86.8343195,97 87,96.8 87,96.5 C87,96.2 86.8343195,96 86.5857988,96 Z" id="Path"></path>
            <path d="M86.5857988,101 L73.4142012,101 C73.1656805,101 73,101.2 73,101.5 C73,101.8 73.1656805,102 73.4142012,102 L86.5857988,102 C86.8343195,102 87,101.8 87,101.5 C87,101.2 86.8343195,101 86.5857988,101 Z" id="Path"></path>
            <path d="M53,105 L70,105 L70,88 L53,88 L53,105 Z M54.7,89.7 L68.3,89.7 L68.3,103.3 L54.7,103.3 L54.7,89.7 Z" id="Shape" fill-rule="nonzero"></path>
            <path d="M45.5857988,111 L32.4142012,111 C32.1656805,111 32,111.2 32,111.5 C32,111.8 32.1656805,112 32.4142012,112 L45.5857988,112 C45.8343195,112 46,111.8 46,111.5 C46,111.2 45.8343195,111 45.5857988,111 Z" id="Path"></path>
            <path d="M45.5857988,118 L32.4142012,118 C32.1656805,118 32,118.2 32,118.5 C32,118.8 32.1656805,119 32.4142012,119 L45.5857988,119 C45.8343195,119 46,118.8 46,118.5 C46,118.2 45.8343195,118 45.5857988,118 Z" id="Path"></path>
            <path d="M86.5857988,111 L73.4142012,111 C73.1656805,111 73,111.2 73,111.5 C73,111.8 73.1656805,112 73.4142012,112 L86.5857988,112 C86.8343195,112 87,111.8 87,111.5 C87,111.2 86.8343195,111 86.5857988,111 Z" id="Path"></path>
            <path d="M86.5857988,118 L73.4142012,118 C73.1656805,118 73,118.2 73,118.5 C73,118.8 73.1656805,119 73.4142012,119 L86.5857988,119 C86.8343195,119 87,118.8 87,118.5 C87,118.2 86.8343195,118 86.5857988,118 Z" id="Path"></path>
        </g>
    </g>
</svg>